<?xml version="1.0" encoding="UTF-8" standalone="no"?>
<svg
   width="283.31006"
   height="79.581474"
   viewBox="0 0 283.31006 79.581474"
   fill="none"
   version="1.1"
   id="svg20"
   sodipodi:docname="bmcButton.svg"
   inkscape:version="1.3 (1:1.3+202307231459+0e150ed6c4)"
   xmlns:inkscape="http://www.inkscape.org/namespaces/inkscape"
   xmlns:sodipodi="http://sodipodi.sourceforge.net/DTD/sodipodi-0.dtd"
   xmlns="http://www.w3.org/2000/svg"
   xmlns:svg="http://www.w3.org/2000/svg">
  <defs
     id="defs20" />
  <sodipodi:namedview
     id="namedview20"
     pagecolor="#ffffff"
     bordercolor="#000000"
     borderopacity="0.25"
     inkscape:showpageshadow="2"
     inkscape:pageopacity="0.0"
     inkscape:pagecheckerboard="0"
     inkscape:deskcolor="#d1d1d1"
     inkscape:zoom="2.2678899"
     inkscape:cx="276.02751"
     inkscape:cy="-5.9526699"
     inkscape:window-width="1920"
     inkscape:window-height="1004"
     inkscape:window-x="307"
     inkscape:window-y="1080"
     inkscape:window-maximized="1"
     inkscape:current-layer="svg20" />
  <path
     d="M 0,12.733036 C 0,5.70079 5.7007905,0 12.733036,0 H 270.57702 c 7.0323,0 12.73304,5.70079 12.73304,12.733036 v 54.115401 c 0,7.0323 -5.70074,12.73304 -12.73304,12.73304 H 12.733036 C 5.7007905,79.581477 0,73.880737 0,66.848437 Z"
     fill="#ffdd00"
     id="path1"
     style="stroke-width:0.52014" />
  <path
     d="m 56.966814,26.172319 -0.03485,-0.02054 -0.08114,-0.02471 c 0.03277,0.02746 0.07334,0.04338 0.115991,0.04525 z"
     fill="#0d0c22"
     id="path2"
     style="stroke-width:0.52014" />
  <path
     d="m 57.479152,29.811017 -0.03901,0.0109 z"
     fill="#0d0c22"
     id="path3"
     style="stroke-width:0.52014" />
  <path
     d="m 56.980858,26.166285 c -0.0047,-5.72e-4 -0.0088,-0.0016 -0.013,-0.0031 -5.2e-4,0.0029 -5.2e-4,0.0057 0,0.0086 0.0047,-6.24e-4 0.0088,-0.0025 0.013,-0.0055 z"
     fill="#0d0c22"
     id="path4"
     style="stroke-width:0.52014" />
  <path
     d="m 56.967334,26.173723 h 0.0068 v -0.0041 z"
     fill="#0d0c22"
     id="path5"
     style="stroke-width:0.52014" />
  <path
     d="m 57.447944,29.804357 0.05878,-0.0336 0.02185,-0.0124 0.01976,-0.0212 c -0.03693,0.0161 -0.07126,0.0388 -0.100387,0.0671 z"
     fill="#0d0c22"
     id="path6"
     style="stroke-width:0.52014" />
  <path
     d="m 57.067201,26.252161 -0.05773,-0.05482 -0.03901,-0.02122 c 0.02133,0.03703 0.05566,0.06434 0.09675,0.07604 z"
     fill="#0d0c22"
     id="path7"
     style="stroke-width:0.52014" />
  <path
     d="m 42.589146,61.560177 c -0.04603,0.0198 -0.08629,0.051 -0.117188,0.0905 l 0.03631,-0.0234 c 0.02466,-0.0224 0.05961,-0.0494 0.08088,-0.0671 z"
     fill="#0d0c22"
     id="path8"
     style="stroke-width:0.52014" />
  <path
     d="m 50.997475,59.906127 c 0,-0.052 -0.02538,-0.0426 -0.01919,0.14252 0,-0.0151 0.0062,-0.0302 0.0089,-0.0447 0.0034,-0.0328 0.0062,-0.065 0.0103,-0.0978 z"
     fill="#0d0c22"
     id="path9"
     style="stroke-width:0.52014" />
  <path
     d="m 50.129101,61.560177 c -0.04598,0.0198 -0.08624,0.051 -0.117136,0.0905 l 0.03631,-0.0234 c 0.02466,-0.0224 0.05961,-0.0494 0.08083,-0.0671 z"
     fill="#0d0c22"
     id="path10"
     style="stroke-width:0.52014" />
  <path
     d="m 36.663967,61.953917 c -0.0349,-0.0302 -0.07766,-0.0505 -0.123326,-0.0577 0.03698,0.0182 0.07396,0.0359 0.09867,0.0494 z"
     fill="#0d0c22"
     id="path11"
     style="stroke-width:0.52014" />
  <path
     d="m 35.333344,60.678017 c -0.0054,-0.0541 -0.022,-0.10611 -0.04863,-0.15344 0.01888,0.0489 0.03464,0.0993 0.04728,0.15084 z"
     fill="#0d0c22"
     id="path12"
     style="stroke-width:0.52014" />
  <path
     d="m 44.283087,37.852537 c -1.82949,0.78318 -3.90563,1.67116 -6.596368,1.67116 -1.125636,-0.002 -2.245758,-0.15666 -3.330043,-0.45907 l 1.86101,19.10683 c 0.06585,0.79842 0.429688,1.54326 1.019163,2.08576 0.589475,0.54303 1.36152,0.84419 2.162848,0.84367 0,0 2.638672,0.13732 3.519166,0.13732 0.947592,0 3.789118,-0.13732 3.789118,-0.13732 0.801173,0 1.573061,-0.30116 2.162432,-0.84367 0.589319,-0.54302 0.953053,-1.28734 1.018903,-2.08576 l 1.99323,-21.11374 c -0.89074,-0.30423 -1.789699,-0.50636 -2.803141,-0.50636 -1.752717,-6.8e-4 -3.164898,0.60295 -4.796318,1.30118 z"
     fill="#ffffff"
     id="path13"
     style="stroke-width:0.52014" />
  <path
     d="m 28.599606,29.701107 0.03152,0.0294 0.02055,0.0123 c -0.01581,-0.0157 -0.03329,-0.0298 -0.05207,-0.0418 z"
     fill="#0d0c22"
     id="path14"
     style="stroke-width:0.52014" />
  <path
     d="M 60.491805,27.937727 60.21197,26.524194 c -0.251748,-1.26831 -0.822342,-2.466714 -2.124253,-2.925113 -0.417153,-0.146628 -0.891001,-0.209669 -1.210887,-0.513171 -0.319887,-0.303554 -0.414552,-0.774957 -0.488412,-1.212135 -0.136797,-0.802369 -0.265792,-1.605413 -0.40623,-2.406377 -0.121192,-0.688614 -0.217418,-1.462219 -0.533144,-2.093929 -0.41091,-0.848297 -1.263941,-1.344355 -2.11229,-1.672564 -0.434837,-0.162284 -0.878517,-0.299549 -1.32875,-0.411119 -2.119312,-0.559151 -4.347542,-0.76471 -6.527866,-0.881846 -2.61693,-0.144391 -5.240882,-0.100907 -7.851623,0.130191 -1.943192,0.176744 -3.989841,0.390574 -5.836443,1.062699 -0.674934,0.246027 -1.370362,0.54131 -1.883584,1.062751 -0.629682,0.640657 -0.835242,1.631472 -0.37549,2.430356 0.326856,0.567369 0.880494,0.968189 1.46768,1.233357 0.764867,0.34168 1.563646,0.601646 2.383075,0.775633 2.2817,0.504328 4.644958,0.702346 6.975967,0.786608 2.583589,0.104288 5.171392,0.01977 7.742654,-0.25284 0.635871,-0.06985 1.270599,-0.153701 1.904182,-0.251436 0.746141,-0.114431 1.225086,-1.090162 1.005171,-1.769881 -0.263139,-0.812616 -0.970218,-1.127821 -1.769882,-1.005172 -0.117812,0.01852 -0.234999,0.03563 -0.352863,0.0528 l -0.08494,0.01233 c -0.270889,0.03422 -0.541778,0.06621 -0.812667,0.09591 -0.559567,0.06028 -1.120487,0.109645 -1.68281,0.14798 -1.259364,0.08769 -2.522213,0.128162 -3.784334,0.130191 -1.24017,0 -2.481069,-0.03495 -3.718535,-0.11646 -0.564613,-0.03703 -1.127821,-0.08405 -1.689676,-0.141166 -0.255597,-0.02674 -0.510466,-0.05482 -0.765387,-0.08634 l -0.242541,-0.03084 -0.05274,-0.0075 -0.251488,-0.03636 c -0.513899,-0.0774 -1.027798,-0.166497 -1.536183,-0.274062 -0.05129,-0.01139 -0.09721,-0.03989 -0.130087,-0.08088 -0.03287,-0.04099 -0.05082,-0.09201 -0.05082,-0.144547 0,-0.05253 0.01794,-0.103508 0.05082,-0.144495 0.03287,-0.04099 0.0788,-0.06954 0.130087,-0.08093 h 0.0096 c 0.440611,-0.09389 0.884602,-0.174039 1.329947,-0.243946 0.1485,-0.02325 0.297416,-0.04614 0.446748,-0.0685 h 0.0041 c 0.2789,-0.01852 0.559151,-0.0685 0.836646,-0.101428 2.414388,-0.251123 4.843131,-0.336738 7.269222,-0.256221 1.177806,0.03423 2.354987,0.103456 3.527332,0.222672 0.252164,0.02606 0.502976,0.05347 0.753735,0.08426 0.09591,0.01165 0.192556,0.02538 0.289146,0.03703 l 0.194585,0.02809 c 0.567369,0.08447 1.131721,0.187042 1.693109,0.307663 0.83186,0.180853 1.899864,0.239784 2.270204,1.151122 0.117552,0.289146 0.171127,0.610489 0.236144,0.914043 l 0.08322,0.387089 c 0.0021,0.007 0.0036,0.01409 0.0047,0.02127 0.196093,0.913575 0.392186,1.827149 0.588279,2.740776 0.01456,0.06746 0.01508,0.137213 10e-4,0.204831 -0.01352,0.06762 -0.04109,0.1317 -0.08062,0.188187 -0.03953,0.05654 -0.0905,0.104288 -0.14928,0.140282 -0.05878,0.03599 -0.124834,0.05945 -0.192972,0.06897 h -0.0057 l -0.119632,0.01644 -0.118592,0.01576 c -0.375541,0.04889 -0.751603,0.09456 -1.127873,0.137057 -0.741356,0.08447 -1.483856,0.157603 -2.227553,0.219239 -1.477718,0.12291 -2.958402,0.203531 -4.442103,0.241866 -0.755972,0.02013 -1.511735,0.02949 -2.267291,0.02809 -3.007296,-0.0023 -6.011991,-0.177108 -8.999313,-0.523469 -0.323423,-0.03839 -0.646795,-0.07948 -0.970218,-0.121297 0.25076,0.03225 -0.182257,-0.02465 -0.269953,-0.03698 -0.205559,-0.02876 -0.411119,-0.05867 -0.616678,-0.08978 -0.690018,-0.103456 -1.375876,-0.23089 -2.064489,-0.342564 -0.832537,-0.137057 -1.628716,-0.0685 -2.381723,0.342564 -0.618135,0.338247 -1.118406,0.856983 -1.434131,1.486873 -0.324776,0.671502 -0.421366,1.402611 -0.566641,2.124091 -0.145275,0.72154 -0.37138,1.49785 -0.285713,2.23853 0.184286,1.59855 1.301859,2.8977 2.909301,3.1882 1.512204,0.27406 3.032678,0.49611 4.55721,0.68518 5.988792,0.7335 12.039065,0.82125 18.046582,0.26179 0.489244,-0.0457 0.977812,-0.0955 1.465444,-0.14938 0.152401,-0.0168 0.306882,7.8e-4 0.451482,0.0514 0.144599,0.0506 0.276194,0.13284 0.384903,0.24082 0.10871,0.10803 0.192452,0.239 0.243946,0.38334 0.05149,0.14434 0.07022,0.29841 0.05461,0.45091 L 53.446,36.059317 c -0.306363,2.98789 -0.612726,5.97558 -0.919088,8.963 -0.319887,3.13728 -0.641801,6.27435 -0.965641,9.4109 -0.09139,0.88372 -0.182725,1.76692 -0.274114,2.65012 -0.08769,0.86915 -0.100023,1.76639 -0.265167,2.62567 -0.260331,1.3508 -1.175101,2.18095 -2.509834,2.48419 -1.22285,0.27827 -2.472019,0.42443 -3.726077,0.43587 -1.390231,0.007 -2.779838,-0.0541 -4.17007,-0.0468 -1.484116,0.008 -3.301955,-0.12847 -4.447616,-1.23325 -1.006524,-0.97006 -1.145609,-2.48939 -1.282666,-3.80275 -0.182725,-1.73883 -0.363838,-3.47766 -0.543339,-5.21648 l -1.007252,-9.66723 -0.651631,-6.25516 c -0.01092,-0.10345 -0.0219,-0.20556 -0.0322,-0.30969 -0.07807,-0.74614 -0.60638,-1.47657 -1.438864,-1.43891 -0.712645,0.0315 -1.522503,0.63722 -1.438917,1.43891 l 0.483055,4.63737 0.998981,9.59274 c 0.284621,2.72496 0.568514,5.44998 0.85173,8.17551 0.05482,0.52222 0.106213,1.046 0.16374,1.5677 0.313125,2.85349 2.492045,4.39103 5.190325,4.82379 1.575973,0.25382 3.190281,0.30584 4.789505,0.33185 2.050081,0.0328 4.12076,0.11183 6.137292,-0.25955 2.988102,-0.54823 5.230011,-2.54349 5.549898,-5.63885 0.09154,-0.89308 0.183089,-1.7872 0.274114,-2.6808 0.303762,-2.95648 0.607003,-5.91311 0.910245,-8.86995 l 0.990348,-9.66125 0.454602,-4.42769 c 0.02237,-0.21955 0.115471,-0.426 0.264232,-0.58875 0.14928,-0.16275 0.346933,-0.27323 0.563312,-0.315 0.85459,-0.16654 1.671211,-0.45085 2.279255,-1.10113 0.967461,-1.03534 1.159913,-2.38516 0.81766,-3.74595 z m -32.14145,0.95519 c 0.013,-0.006 -0.01098,0.10548 -0.02122,0.1576 -0.0021,-0.0788 0.002,-0.14871 0.02122,-0.1576 z m 0.08291,0.64133 c 0.0069,-0.005 0.02741,0.0226 0.04863,0.0555 -0.0322,-0.0302 -0.05274,-0.0527 -0.04931,-0.0555 z m 0.08156,0.10756 c 0.02944,0.05 0.0452,0.0816 0,0 z m 0.163741,0.13295 h 0.0041 c 0,0.005 0.0075,0.01 0.0103,0.0144 -0.0046,-0.005 -0.0096,-0.0101 -0.01509,-0.0144 z m 28.676795,-0.19874 c -0.306883,0.2919 -0.769808,0.4276 -1.226491,0.49543 -5.125359,0.76055 -10.325307,1.14561 -15.506737,0.97568 -3.708237,-0.12676 -7.377463,-0.53855 -11.048718,-1.05724 -0.359729,-0.0507 -0.749574,-0.11646 -0.996953,-0.38162 -0.465942,-0.50022 -0.23708,-1.50748 -0.115783,-2.11177 0.110998,-0.55364 0.323423,-1.291617 0.981869,-1.370418 1.027797,-0.120569 2.221415,0.313124 3.238238,0.467298 1.224202,0.18683 2.452982,0.33642 3.686339,0.44882 5.263612,0.47963 10.615649,0.40493 15.856011,-0.29668 0.954978,-0.12837 1.906834,-0.277498 2.85505,-0.447428 0.845228,-0.151465 1.781481,-0.435774 2.292259,0.439208 0.350054,0.59608 0.396347,1.39366 0.342252,2.06719 -0.01664,0.29347 -0.144599,0.5695 -0.358376,0.77153 z"
     fill="#0d0c22"
     id="path15"
     style="stroke-width:0.52014" />
  <path
     fill-rule="evenodd"
     clip-rule="evenodd"
     d="m 88.442589,43.816467 c -0.299081,0.57117 -0.710512,1.06863 -1.234294,1.49072 -0.523781,0.42241 -1.134426,0.76633 -1.832974,1.03113 -0.698029,0.26543 -1.400738,0.44352 -2.107089,0.53429 -0.706871,0.0911 -1.392936,0.0832 -2.057155,-0.0249 -0.66526,-0.10746 -1.231172,-0.32685 -1.696178,-0.65849 l 0.524302,-5.44156 c 0.48165,-0.16545 1.088133,-0.33538 1.819971,-0.50937 0.731317,-0.17373 1.48344,-0.29825 2.256889,-0.37263 0.773449,-0.0747 1.504246,-0.0659 2.194472,0.0249 0.689706,0.0911 1.234293,0.31047 1.633241,0.65849 0.216378,0.19859 0.399468,0.41393 0.548748,0.64591 0.149801,0.23204 0.240825,0.47224 0.274634,0.72066 0.0827,0.69569 -0.02497,1.32932 -0.324567,1.90085 z m -7.606013,-11.59143 c 0.349014,-0.21529 0.769288,-0.40602 1.25926,-0.57184 0.490492,-0.16515 0.993468,-0.2815 1.508927,-0.34766 0.514939,-0.0659 1.017915,-0.0747 1.508927,-0.0249 0.489972,0.0498 0.922729,0.18632 1.29671,0.40982 0.373981,0.22382 0.652256,0.54693 0.835346,0.96902 0.182569,0.42272 0.232502,0.95701 0.14928,1.60292 -0.06606,0.51353 -0.270473,0.94853 -0.610645,1.30446 -0.340692,0.3565 -0.756804,0.65439 -1.246776,0.89464 -0.490493,0.24051 -1.010113,0.43088 -1.558341,0.57117 -0.549268,0.14121 -1.077211,0.24493 -1.583827,0.31083 -0.507137,0.0665 -0.947696,0.10814 -1.321677,0.12421 -0.373981,0.0167 -0.619487,0.0249 -0.735999,0.0249 z m 10.299299,8.07533 c -0.265791,-0.57943 -0.623128,-1.08886 -1.072009,-1.52827 -0.448881,-0.43879 -0.981505,-0.75748 -1.596311,-0.95638 0.265792,-0.21534 0.527943,-0.55484 0.785932,-1.01885 0.25747,-0.4634 0.477489,-0.96903 0.660579,-1.51564 0.182569,-0.54693 0.307923,-1.09734 0.373981,-1.65244 0.06606,-0.55483 0.04109,-1.03112 -0.07438,-1.42898 -0.283477,-0.99357 -0.727677,-1.77222 -1.334681,-2.33553 -0.607003,-0.563 -1.313354,-0.95233 -2.119572,-1.16792 -0.806737,-0.21467 -1.695657,-0.2607 -2.66832,-0.13649 -0.972662,0.12416 -1.96613,0.36847 -2.979884,0.73288 0,-0.0826 0.0083,-0.16957 0.02497,-0.2607 0.01612,-0.0908 0.02445,-0.18631 0.02445,-0.28592 0,-0.24836 -0.124313,-0.46339 -0.373981,-0.64591 -0.249147,-0.1822 -0.535744,-0.28966 -0.859792,-0.32311 -0.324567,-0.0328 -0.640292,0.0372 -0.948216,0.21123 -0.307402,0.17399 -0.51962,0.49335 -0.635611,0.95638 -0.133156,1.49109 -0.266312,3.04012 -0.398948,4.64657 -0.133156,1.60703 -0.274634,3.23049 -0.423914,4.87065 -0.149801,1.63979 -0.299601,3.26736 -0.448881,4.8823 -0.149801,1.61524 -0.299601,3.16807 -0.448881,4.65879 0.04993,0.44732 0.174247,0.79535 0.373981,1.04377 0.199213,0.24867 0.432236,0.3978 0.698028,0.44732 0.265792,0.0498 0.544587,0.004 0.835345,-0.13685 0.290759,-0.14028 0.544587,-0.38522 0.760966,-0.73288 0.664739,0.36441 1.413221,0.6005 2.244405,0.70833 0.831185,0.10746 1.674332,0.10746 2.531524,0 0.855631,-0.10783 1.699298,-0.31053 2.530483,-0.60904 0.831184,-0.29793 1.587988,-0.67082 2.269372,-1.11783 0.681904,-0.44732 1.255099,-0.95706 1.721145,-1.52822 0.465005,-0.57185 0.772928,-1.18878 0.922208,-1.85108 0.149801,-0.6793 0.191412,-1.35829 0.124834,-2.03765 -0.06658,-0.67899 -0.233023,-1.3082 -0.498815,-1.88853 z"
     fill="#0d0c23"
     id="path16"
     style="stroke-width:0.52014" />
  <path
     fill-rule="evenodd"
     clip-rule="evenodd"
     d="m 115.46544,53.419457 c -0.091,0.54667 -0.22054,1.12246 -0.38646,1.72739 -0.16645,0.60388 -0.3615,1.15523 -0.58568,1.65248 -0.2247,0.49674 -0.47385,0.89776 -0.74796,1.20465 -0.27464,0.30636 -0.57008,0.43483 -0.8858,0.38542 -0.24915,-0.0338 -0.40727,-0.19089 -0.47333,-0.47229 -0.0671,-0.28191 -0.0671,-0.62989 0,-1.0434 0.0661,-0.41455 0.19453,-0.88268 0.38594,-1.40438 0.19142,-0.5217 0.42444,-1.03976 0.69855,-1.55262 0.27464,-0.5139 0.5862,-1.00647 0.93522,-1.47876 0.34901,-0.47166 0.71467,-0.8654 1.09697,-1.17999 0.0832,0.0993 0.12067,0.34772 0.11235,0.74552 -0.009,0.39754 -0.0583,0.86983 -0.1498,1.41598 z m 8.45436,-10.78371 c -0.2247,-0.24842 -0.49881,-0.38901 -0.82338,-0.4224 -0.32405,-0.0331 -0.65278,0.14907 -0.98462,0.54661 -0.21638,0.39749 -0.49102,0.7786 -0.82339,1.14301 -0.33237,0.36472 -0.67722,0.69574 -1.03456,0.99394 -0.35785,0.29788 -0.69854,0.55509 -1.02259,0.77012 -0.32405,0.2156 -0.57788,0.37289 -0.76045,0.47218 -0.0666,-0.52987 -0.10455,-1.1014 -0.11235,-1.71454 -0.009,-0.61283 0.004,-1.23382 0.0375,-1.86335 0.0494,-0.89459 0.15344,-1.79714 0.31157,-2.70847 0.15812,-0.91098 0.38646,-1.80562 0.68606,-2.68388 0,-0.46339 -0.10871,-0.84039 -0.32457,-1.13042 -0.21637,-0.28966 -0.47801,-0.47218 -0.78541,-0.54661 -0.30792,-0.0744 -0.62313,-0.0331 -0.94769,0.12421 -0.32405,0.1576 -0.60233,0.44352 -0.83535,0.85714 -0.19921,0.54692 -0.42807,1.1597 -0.68554,1.83874 -0.25799,0.67931 -0.54875,1.37094 -0.8728,2.07484 -0.32457,0.70453 -0.68606,1.38763 -1.08501,2.04998 -0.39895,0.66292 -0.83535,1.25115 -1.3092,1.76432 -0.47384,0.51353 -0.9893,0.91544 -1.54585,1.20516 -0.55759,0.28998 -1.1594,0.4183 -1.80801,0.38522 -0.2996,-0.0829 -0.51598,-0.30642 -0.64862,-0.67114 -0.13315,-0.3641 -0.21221,-0.81995 -0.23666,-1.36656 -0.025,-0.54662 0,-1.14712 0.0744,-1.80156 0.0749,-0.65408 0.17477,-1.30441 0.2996,-1.95032 0.12431,-0.64622 0.26163,-1.25905 0.41091,-1.83875 0.1498,-0.57969 0.29076,-1.06863 0.42392,-1.46612 0.19973,-0.48014 0.19973,-0.88236 0,-1.20516 -0.19922,-0.32311 -0.47333,-0.53809 -0.82235,-0.64623 -0.34901,-0.10746 -0.71519,-0.10309 -1.09749,0.0126 -0.38231,0.116 -0.65694,0.37258 -0.82286,0.77007 -0.28296,0.67967 -0.54095,1.44126 -0.77345,2.28607 -0.23251,0.84487 -0.41976,1.71896 -0.56071,2.62151 -0.14148,0.90312 -0.22106,1.79776 -0.23719,2.68387 -0.001,0.0577 0.002,0.11251 0.002,0.16988 -0.36254,0.96304 -0.70791,1.69092 -1.03612,2.17798 -0.42391,0.62979 -0.90244,0.90312 -1.43402,0.8199 -0.23355,-0.0993 -0.38647,-0.33102 -0.46137,-0.69574 -0.0754,-0.3641 -0.0999,-0.81137 -0.0754,-1.34191 0.0255,-0.52961 0.0879,-1.13011 0.18725,-1.80125 0.10039,-0.67082 0.22418,-1.36651 0.37398,-2.08716 0.1498,-0.72092 0.30793,-1.44501 0.47385,-2.17414 0.16645,-0.72882 0.31573,-1.41634 0.4494,-2.06256 -0.0166,-0.5797 -0.18725,-1.0226 -0.51182,-1.32933 -0.32352,-0.3061 -0.77709,-0.4262 -1.3586,-0.3603 -0.39895,0.16577 -0.69439,0.38142 -0.88528,0.64623 -0.19141,0.26475 -0.34538,0.60461 -0.46137,1.01848 -0.0671,0.21565 -0.16644,0.64622 -0.2996,1.29245 -0.13315,0.6456 -0.303239,1.38737 -0.511296,2.22365 -0.207536,0.83696 -0.453042,1.71048 -0.735478,2.62145 -0.282436,0.91103 -0.598682,1.73571 -0.947176,2.47239 -0.349534,0.73704 -0.731837,1.32932 -1.147429,1.77664 -0.415592,0.44701 -0.864474,0.62953 -1.346644,0.54662 -0.266312,-0.0498 -0.436397,-0.32311 -0.511298,-0.8199 -0.0749,-0.49715 -0.08686,-1.10962 -0.03745,-1.83875 0.04993,-0.72882 0.149801,-1.52828 0.299081,-2.39769 0.1498,-0.86973 0.303242,-1.69373 0.461364,-2.47264 0.158123,-0.77834 0.303762,-1.46617 0.436918,-2.06226 0.132636,-0.59644 0.224181,-0.99393 0.274114,-1.19252 0,-0.4804 -0.108709,-0.86531 -0.324047,-1.15565 -0.216379,-0.28941 -0.478009,-0.47192 -0.785932,-0.54661 -0.307923,-0.0744 -0.623649,-0.0331 -0.947176,0.1242 -0.324567,0.15761 -0.602843,0.44353 -0.835865,0.85709 -0.08322,0.44732 -0.191412,0.96528 -0.324048,1.55319 -0.133156,0.58787 -0.26163,1.19253 -0.386464,1.81384 -0.124834,0.6213 -0.241345,1.23002 -0.349014,1.82642 -0.10819,0.59644 -0.187251,1.11814 -0.237184,1.56546 -0.03329,0.34772 -0.07074,0.77455 -0.111831,1.27955 -0.04213,0.50563 -0.06294,1.0396 -0.06294,1.6026 0,0.56368 0.04161,1.12257 0.125354,1.67735 0.0827,0.55515 0.232503,1.06457 0.448361,1.52797 0.215859,0.46401 0.519621,0.84481 0.910766,1.14301 0.390105,0.29819 0.884759,0.4637 1.48344,0.49715 0.614806,0.0328 1.151071,-0.0123 1.608795,-0.13685 0.456683,-0.12421 0.872275,-0.31901 1.246776,-0.58412 0.373981,-0.26449 0.714673,-0.57939 1.022596,-0.94411 0.306883,-0.3641 0.610645,-0.76159 0.909726,-1.19252 0.282961,0.62983 0.648621,1.11814 1.097501,1.46612 0.44888,0.34771 0.92273,0.55514 1.42154,0.62104 0.4983,0.0658 1.00595,-0.004 1.52141,-0.21123 0.51494,-0.2068 0.98047,-0.55889 1.39606,-1.05604 0.27411,-0.3048 0.5321,-0.65126 0.77449,-1.03424 0.10299,0.17934 0.21222,0.35239 0.33549,0.51223 0.40727,0.53054 0.96018,0.89464 1.65873,1.09354 0.74796,0.19891 1.47876,0.23235 2.19395,0.0996 0.71467,-0.13237 1.39657,-0.37289 2.04467,-0.7206 0.64861,-0.34803 1.25094,-0.76601 1.80853,-1.25494 0.55655,-0.48862 1.04288,-0.99774 1.45847,-1.52823 -0.0166,0.38111 -0.025,0.74172 -0.025,1.0809 0,0.33981 -0.008,0.70802 -0.0244,1.10582 -0.83171,0.58006 -1.61712,1.27575 -2.35676,2.08717 -0.74016,0.81142 -1.38877,1.67704 -1.94532,2.59644 -0.55707,0.91909 -0.99347,1.85118 -1.30868,2.79523 -0.31624,0.94458 -0.4702,1.82673 -0.46188,2.647 0.008,0.81974 0.20337,1.53597 0.5862,2.1487 0.38178,0.61324 1.00543,1.05172 1.8699,1.31699 0.89828,0.28192 1.68734,0.28972 2.36976,0.025 0.68139,-0.26527 1.27539,-0.70427 1.78252,-1.317 0.50714,-0.61272 0.92273,-1.35392 1.2473,-2.2236 0.32405,-0.86967 0.58152,-1.7768 0.77293,-2.72085 0.19089,-0.94406 0.31156,-1.87251 0.3615,-2.78291 0.0499,-0.91134 0.0499,-1.72338 0,-2.43545 1.42986,-0.59613 2.60174,-1.34987 3.51614,-2.26121 0.91441,-0.91035 1.6707,-1.87152 2.26938,-2.88215 0.18257,-0.24842 0.24498,-0.54661 0.18725,-0.89433 -0.0588,-0.34797 -0.19974,-0.64622 -0.42392,-0.89459 z"
     fill="#0d0c23"
     id="path17"
     style="stroke-width:0.52014" />
  <path
     fill-rule="evenodd"
     clip-rule="evenodd"
     d="m 155.37841,41.046097 c 0.0499,-0.38079 0.12484,-0.78271 0.22418,-1.20511 0.0999,-0.42241 0.2247,-0.83254 0.3745,-1.23003 0.14928,-0.39749 0.32405,-0.7411 0.52379,-1.03113 0.19921,-0.28972 0.41143,-0.49678 0.63561,-0.6213 0.2247,-0.1239 0.45252,-0.11163 0.68606,0.0372 0.24915,0.14943 0.40259,0.46401 0.46137,0.9441 0.0577,0.48103 0,0.99425 -0.17477,1.54087 -0.17477,0.54692 -0.48633,1.06009 -0.93521,1.54055 -0.44888,0.48071 -1.05589,0.79498 -1.82049,0.9441 -0.0333,-0.23135 -0.025,-0.53808 0.025,-0.91924 z m 8.64057,1.01854 c -0.27411,-0.0823 -0.53574,-0.0908 -0.78541,-0.0246 -0.24914,0.0662 -0.40727,0.2402 -0.47332,0.52206 -0.13368,0.52987 -0.3459,1.07237 -0.63666,1.62721 -0.29076,0.55514 -0.64809,1.0809 -1.07149,1.57805 -0.42391,0.49679 -0.90244,0.93594 -1.43402,1.31674 -0.53263,0.3811 -1.08918,0.65439 -1.67121,0.81989 -0.58204,0.18252 -1.06421,0.20302 -1.44599,0.0621 -0.38283,-0.14028 -0.68607,-0.3808 -0.91025,-0.72029 -0.2247,-0.3395 -0.38698,-0.74963 -0.48633,-1.23003 -0.0999,-0.48045 -0.15812,-0.97724 -0.17477,-1.49109 0.9477,0.0665 1.79137,-0.10303 2.53153,-0.50937 0.73911,-0.4054 1.36692,-0.94416 1.88238,-1.61498 0.51494,-0.67078 0.90609,-1.42451 1.17188,-2.26116 0.26579,-0.83628 0.41559,-1.66881 0.44888,-2.49724 0.0166,-0.77865 -0.0994,-1.43684 -0.34901,-1.97524 -0.24915,-0.53813 -0.5862,-0.95705 -1.01012,-1.25494 -0.42339,-0.29819 -0.91024,-0.47223 -1.45847,-0.5217 -0.54823,-0.0498 -1.10582,0.0249 -1.67121,0.22351 -0.6819,0.23198 -1.25926,0.60866 -1.73311,1.13073 -0.47385,0.5217 -0.86863,1.12662 -1.18436,1.81383 -0.31572,0.68752 -0.56539,1.42862 -0.74796,2.22365 -0.18309,0.7953 -0.31625,1.57806 -0.39895,2.34849 -0.0749,0.69127 -0.11495,1.35231 -0.12899,1.99037 -0.0359,0.081 -0.0702,0.15885 -0.10819,0.24556 -0.25799,0.58854 -0.55759,1.16412 -0.89776,1.72712 -0.3407,0.56337 -0.71936,1.03555 -1.13443,1.41635 -0.41559,0.38115 -0.84783,0.51353 -1.29671,0.39754 -0.26631,-0.0659 -0.41143,-0.37294 -0.4364,-0.91925 -0.025,-0.54692 0.004,-1.22591 0.0869,-2.03765 0.0832,-0.81141 0.17892,-1.68993 0.28711,-2.63409 0.10767,-0.94411 0.16177,-1.8466 0.16177,-2.70816 0,-0.74552 -0.14148,-1.4617 -0.42392,-2.14953 -0.28295,-0.6869 -0.66942,-1.25874 -1.15939,-1.71423 -0.49049,-0.45585 -1.06005,-0.75816 -1.70814,-0.90692 -0.64862,-0.14943 -1.34665,-0.0498 -2.09461,0.29789 -0.74848,0.34802 -1.343,0.83659 -1.78304,1.46612 -0.44108,0.62983 -0.84419,1.29213 -1.20984,1.98787 -0.13316,-0.53023 -0.32821,-1.0226 -0.5862,-1.47845 -0.25747,-0.45549 -0.5732,-0.85303 -0.94718,-1.19284 -0.3745,-0.33918 -0.79477,-0.6043 -1.25926,-0.79503 -0.46552,-0.19006 -0.95654,-0.28556 -1.472,-0.28556 -0.49829,0 -0.95965,0.0955 -1.38357,0.28556 -0.42391,0.19073 -0.81038,0.43473 -1.15991,0.73293 -0.34902,0.29851 -0.66474,0.63363 -0.9477,1.00652 -0.28243,0.37263 -0.5321,0.74146 -0.74796,1.10556 -0.0338,-0.43062 -0.0707,-0.80731 -0.11183,-1.13078 -0.0421,-0.32275 -0.11703,-0.59609 -0.2247,-0.81959 -0.10819,-0.22382 -0.26163,-0.39338 -0.46136,-0.50943 -0.19974,-0.11567 -0.48218,-0.17398 -0.84783,-0.17398 -0.18309,0 -0.36618,0.0372 -0.54875,0.11157 -0.18309,0.0747 -0.34538,0.17846 -0.48633,0.31083 -0.14148,0.13306 -0.24915,0.29409 -0.32405,0.48451 -0.0749,0.19043 -0.0952,0.41014 -0.0624,0.6585 0.0166,0.18252 0.0624,0.40165 0.13732,0.65855 0.0744,0.2569 0.14512,0.59265 0.2117,1.00621 0.0666,0.41424 0.12067,0.91545 0.16228,1.50337 0.0416,0.58822 0.0536,1.30882 0.0374,2.16185 -0.0172,0.85335 -0.0791,1.85103 -0.18725,2.99404 -0.10819,1.14306 -0.2788,2.46827 -0.5113,3.97543 -0.0333,0.34797 0.0999,0.62984 0.39947,0.84512 0.29908,0.21498 0.63977,0.33919 1.02208,0.37258 0.3823,0.0331 0.74432,-0.0334 1.08501,-0.19859 0.34069,-0.16613 0.53626,-0.4558 0.58568,-0.86973 0.0499,-0.77859 0.14564,-1.60671 0.28711,-2.48497 0.14096,-0.87758 0.31573,-1.7473 0.52379,-2.60886 0.20753,-0.8612 0.4442,-1.6811 0.71051,-2.46006 0.26579,-0.7786 0.56123,-1.46581 0.88528,-2.06225 0.32456,-0.5964 0.66109,-1.07243 1.01011,-1.42862 0.34901,-0.35619 0.71467,-0.53434 1.09749,-0.53434 0.46501,0 0.82651,0.21092 1.0845,0.63332 0.25747,0.42272 0.44004,0.96554 0.54875,1.62752 0.10766,0.66297 0.1576,1.388 0.1498,2.1745 -0.009,0.78682 -0.0421,1.54461 -0.0999,2.27343 -0.0583,0.72913 -0.12483,1.37915 -0.19973,1.95068 -0.0749,0.57153 -0.129,0.96523 -0.16177,1.1802 0,0.38116 0.14512,0.68315 0.43588,0.90697 0.29076,0.22345 0.61481,0.35619 0.97266,0.39749 0.35786,0.0416 0.69387,-0.0249 1.01011,-0.1989 0.31573,-0.17404 0.49882,-0.4675 0.54875,-0.88206 0.16593,-1.19252 0.39479,-2.3891 0.68555,-3.59016 0.29076,-1.201 0.62365,-2.27754 0.99763,-3.23018 0.37398,-0.95263 0.78957,-1.73123 1.24677,-2.33584 0.45721,-0.6043 0.94354,-0.90697 1.459,-0.90697 0.26579,0 0.46968,0.18252 0.61064,0.54661 0.14148,0.36441 0.21222,0.86125 0.21222,1.49078 0,0.46402 -0.0375,0.94031 -0.11183,1.42893 -0.0754,0.48862 -0.16228,0.99393 -0.26215,1.51564 -0.0999,0.52201 -0.18725,1.05604 -0.26215,1.60265 -0.0744,0.54693 -0.11183,1.1181 -0.11183,1.71454 0,0.41419 0.0416,0.89459 0.12483,1.44121 0.0827,0.5463 0.24031,1.06457 0.47333,1.55282 0.23302,0.48893 0.55291,0.90286 0.9607,1.24236 0.40727,0.33949 0.92637,0.50942 1.55782,0.50942 0.94821,0 1.7872,-0.20301 2.51904,-0.60872 0.73132,-0.40571 1.35912,-0.93563 1.88291,-1.59001 0.027,-0.0344 0.052,-0.0709 0.0785,-0.10497 0.0401,0.0968 0.0754,0.19922 0.12067,0.29123 0.35734,0.72882 0.84367,1.29182 1.45899,1.68967 0.61481,0.3975 1.33832,0.61689 2.17003,0.6585 0.83066,0.041 1.73675,-0.11219 2.71825,-0.45991 0.7308,-0.26511 1.36693,-0.59644 1.90736,-0.99393 0.5399,-0.39749 1.02623,-0.882 1.45847,-1.45353 0.43276,-0.57153 0.82702,-1.23003 1.18488,-1.97524 0.35786,-0.74583 0.71884,-1.59855 1.08449,-2.55971 0.0666,-0.26444 0.004,-0.50059 -0.18673,-0.70797 -0.19141,-0.2068 -0.42391,-0.35182 -0.69855,-0.43504 z"
     fill="#0d0c23"
     id="path18"
     style="stroke-width:0.52014" />
  <path
     fill-rule="evenodd"
     clip-rule="evenodd"
     d="m 177.57228,39.293067 c -0.0832,0.48893 -0.19505,1.02764 -0.33653,1.61525 -0.14148,0.58822 -0.31988,1.19694 -0.53626,1.82647 -0.21586,0.62947 -0.48217,1.19689 -0.7979,1.7019 -0.31572,0.50563 -0.67774,0.90691 -1.08449,1.20516 -0.40779,0.2982 -0.87696,0.42241 -1.40906,0.37258 -0.26631,-0.0328 -0.47021,-0.21497 -0.61117,-0.54662 -0.14147,-0.33096 -0.21585,-0.75368 -0.2247,-1.26721 -0.008,-0.51323 0.0375,-1.07654 0.13732,-1.68963 0.0999,-0.61252 0.25331,-1.21333 0.46188,-1.80156 0.20754,-0.5876 0.46085,-1.13042 0.75993,-1.62757 0.2996,-0.49678 0.64445,-0.882 1.03508,-1.15528 0.39062,-0.27334 0.81922,-0.40129 1.28423,-0.38522 0.46552,0.0167 0.96434,0.24837 1.49644,0.69569 -0.0338,0.21565 -0.0915,0.56773 -0.17477,1.05604 z m 8.86528,1.90085 c -0.25799,-0.13242 -0.52379,-0.16108 -0.7979,-0.0867 -0.27411,0.0744 -0.46969,0.32722 -0.58568,0.75784 -0.0666,0.46402 -0.21638,1.01032 -0.44888,1.6398 -0.23302,0.62952 -0.52014,1.22628 -0.86031,1.78897 -0.34121,0.56331 -0.73184,1.03143 -1.1724,1.40401 -0.44056,0.37294 -0.91024,0.54287 -1.40854,0.50911 -0.41611,-0.0328 -0.70739,-0.24399 -0.87279,-0.63327 -0.16697,-0.38932 -0.25383,-0.87763 -0.26215,-1.46617 -0.009,-0.5876 0.0499,-1.25021 0.17424,-1.98751 0.12484,-0.73704 0.27464,-1.46996 0.44888,-2.19941 0.17477,-0.72851 0.3537,-1.42862 0.53679,-2.09944 0.18257,-0.67078 0.33185,-1.2382 0.44888,-1.7019 0.13264,-0.41424 0.091,-0.76601 -0.12483,-1.05635 -0.21638,-0.28941 -0.48634,-0.49684 -0.81038,-0.621 -0.32457,-0.12421 -0.6533,-0.15734 -0.98567,-0.0994 -0.33237,0.058 -0.54823,0.23615 -0.64809,0.53403 -0.98099,-0.84481 -1.92452,-1.30035 -2.83009,-1.36651 -0.9066,-0.0662 -1.74195,0.13269 -2.50655,0.59639 -0.76513,0.46371 -1.44235,1.13453 -2.03219,2.01279 -0.59036,0.8782 -1.06837,1.83464 -1.43455,2.86987 -0.36566,1.03519 -0.594,2.09154 -0.68554,3.16807 -0.0916,1.0768 -0.0208,2.05846 0.21221,2.94457 0.23303,0.88611 0.64394,1.61114 1.2343,2.17382 0.58984,0.56332 1.39241,0.84518 2.40669,0.84518 0.44888,0 0.88111,-0.0911 1.29671,-0.27333 0.41507,-0.18252 0.79789,-0.39781 1.14691,-0.64623 0.34901,-0.24842 0.65641,-0.50942 0.92324,-0.7827 0.26528,-0.27334 0.47333,-0.5009 0.62313,-0.68342 0.11599,0.5964 0.30741,1.10202 0.57372,1.51595 0.26527,0.41388 0.56903,0.754 0.90972,1.01849 0.34069,0.2648 0.69855,0.4596 1.07253,0.58412 0.37398,0.12421 0.736,0.18631 1.08449,0.18631 0.78178,0 1.51257,-0.26511 2.195,-0.79535 0.68138,-0.52955 1.29255,-1.18019 1.83297,-1.95031 0.53991,-0.77044 0.98515,-1.58185 1.33364,-2.4352 0.34954,-0.85297 0.58204,-1.61082 0.69855,-2.27374 0.11651,-0.24842 0.0952,-0.50911 -0.0624,-0.78239 -0.15812,-0.27334 -0.36566,-0.47604 -0.62364,-0.60904 z"
     fill="#0d0c23"
     id="path19"
     style="stroke-width:0.52014" />
  <path
     fill-rule="evenodd"
     clip-rule="evenodd"
     d="m 231.32619,54.911737 c -0.14096,0.56279 -0.3615,1.03976 -0.6611,1.42883 -0.29908,0.38906 -0.67306,0.59192 -1.12194,0.60908 -0.28244,0.0161 -0.49882,-0.13315 -0.64862,-0.44732 -0.14928,-0.3152 -0.25331,-0.72091 -0.31156,-1.21765 -0.0583,-0.49725 -0.0832,-1.05224 -0.0749,-1.66497 0.008,-0.61272 0.0333,-1.21765 0.0749,-1.81393 0.0411,-0.59608 0.0915,-1.15154 0.1498,-1.66471 0.0577,-0.51385 0.10351,-0.91072 0.1368,-1.19253 0.56539,0.0662 1.0356,0.31016 1.40906,0.73288 0.37398,0.4224 0.6611,0.92335 0.86031,1.50336 0.19973,0.5797 0.31572,1.20532 0.34953,1.87578 0.0328,0.67098 -0.0213,1.28787 -0.16228,1.85118 z m -9.02756,0 c -0.14095,0.56279 -0.36149,1.03976 -0.66058,1.42883 -0.29908,0.38906 -0.67358,0.59192 -1.12246,0.60908 -0.28243,0.0161 -0.49829,-0.13315 -0.64809,-0.44732 -0.1498,-0.3152 -0.25383,-0.72091 -0.31157,-1.21765 -0.0588,-0.49725 -0.0837,-1.05224 -0.0749,-1.66497 0.008,-0.61272 0.0328,-1.21765 0.0749,-1.81393 0.0411,-0.59608 0.091,-1.15154 0.14928,-1.66471 0.0583,-0.51385 0.10351,-0.91072 0.13732,-1.19253 0.56487,0.0662 1.03508,0.31016 1.40854,0.73288 0.3745,0.4224 0.6611,0.92335 0.86083,1.50336 0.19974,0.5797 0.31573,1.20532 0.34902,1.87578 0.0328,0.67098 -0.0213,1.28787 -0.16229,1.85118 z m -9.2637,-14.11323 c -0.0172,0.39718 -0.0546,0.74932 -0.11287,1.05573 -0.0582,0.30704 -0.13679,0.50121 -0.23666,0.58412 -0.18309,-0.0996 -0.40779,-0.35588 -0.67358,-0.77043 -0.26579,-0.41388 -0.47333,-0.88232 -0.62365,-1.40407 -0.14928,-0.5217 -0.19557,-1.03487 -0.1368,-1.5405 0.0577,-0.505 0.31989,-0.89813 0.78541,-1.18025 0.18257,-0.0993 0.3407,-0.0621 0.47385,0.11194 0.13316,0.17398 0.24083,0.42646 0.32457,0.75779 0.0827,0.33164 0.14044,0.71243 0.17425,1.14306 0.0333,0.43088 0.0416,0.84481 0.0255,1.24261 z m -2.20747,4.95705 c -0.25799,0.27296 -0.54511,0.50906 -0.86031,0.70801 -0.31625,0.1989 -0.6403,0.34797 -0.97267,0.44732 -0.33289,0.0996 -0.63197,0.12416 -0.89776,0.0744 -0.74796,-0.14881 -1.32168,-0.47223 -1.72062,-0.96902 -0.39895,-0.49684 -0.65278,-1.08064 -0.76045,-1.75142 -0.10819,-0.67113 -0.0962,-1.38768 0.0375,-2.14958 0.13264,-0.7619 0.35682,-1.46992 0.67306,-2.12436 0.31573,-0.65444 0.69855,-1.21775 1.14691,-1.68962 0.44888,-0.47224 0.93938,-0.76601 1.47148,-0.88237 -0.19973,0.84481 -0.26579,1.71896 -0.19973,2.62151 0.0666,0.90281 0.28295,1.75173 0.64861,2.54671 0.2325,0.48108 0.5113,0.91956 0.83535,1.31705 0.32456,0.39785 0.71935,0.73735 1.18488,1.01885 -0.13316,0.28181 -0.32873,0.5592 -0.5862,0.83254 z m 27.59344,-4.70863 c 0.0499,-0.38079 0.12432,-0.78307 0.2247,-1.20547 0.0993,-0.4221 0.22419,-0.83218 0.37347,-1.22972 0.1498,-0.3978 0.32456,-0.74141 0.5243,-1.03113 0.19973,-0.28966 0.41091,-0.4971 0.63561,-0.6213 0.2247,-0.12421 0.45304,-0.11189 0.68554,0.0372 0.24967,0.14943 0.40311,0.46401 0.46137,0.9441 0.0583,0.48077 0,0.99394 -0.17425,1.54087 -0.17477,0.54661 -0.48633,1.06015 -0.93521,1.54024 -0.44836,0.48102 -1.05589,0.79534 -1.82049,0.94441 -0.0333,-0.23167 -0.025,-0.53808 0.025,-0.91919 z m 10.05016,0 c 0.0499,-0.38079 0.12431,-0.78307 0.22418,-1.20547 0.0999,-0.4221 0.2247,-0.83218 0.3745,-1.22972 0.14928,-0.3978 0.32353,-0.74141 0.52326,-1.03113 0.19973,-0.28966 0.41195,-0.4971 0.63613,-0.6213 0.2247,-0.12421 0.45304,-0.11189 0.68555,0.0372 0.24966,0.14943 0.4031,0.46401 0.46136,0.9441 0.0583,0.48077 0,0.99394 -0.17425,1.54087 -0.17476,0.54661 -0.48633,1.06015 -0.93521,1.54024 -0.44888,0.48102 -1.05588,0.79534 -1.82049,0.94441 -0.0333,-0.23167 -0.025,-0.53808 0.025,-0.91919 z m 9.33912,1.45353 c -0.19141,-0.2068 -0.42392,-0.35182 -0.69803,-0.43504 -0.27464,-0.0826 -0.53627,-0.0908 -0.78593,-0.0246 -0.24915,0.0662 -0.40779,0.2402 -0.47385,0.5217 -0.13316,0.53023 -0.34485,1.07274 -0.63561,1.62721 -0.29128,0.55545 -0.64862,1.08126 -1.07253,1.57805 -0.42392,0.49679 -0.90193,0.93625 -1.43351,1.31705 -0.53262,0.3811 -1.08917,0.65444 -1.67069,0.81958 -0.58256,0.18283 -1.06473,0.20333 -1.44703,0.0624 -0.3823,-0.14059 -0.68555,-0.38079 -0.91025,-0.72029 -0.22418,-0.33981 -0.38594,-0.74963 -0.48633,-1.23034 -0.0993,-0.48009 -0.15812,-0.97693 -0.17424,-1.49072 0.94769,0.0665 1.79136,-0.10309 2.531,-0.50943 0.73964,-0.40571 1.36745,-0.94447 1.88343,-1.61524 0.51494,-0.67052 0.90556,-1.42425 1.17135,-2.26084 0.26579,-0.83665 0.4156,-1.66887 0.4494,-2.4973 0.0161,-0.7786 -0.10038,-1.43715 -0.34953,-1.97555 -0.24915,-0.53808 -0.58568,-0.95674 -1.00959,-1.25463 -0.42444,-0.29851 -0.91025,-0.47223 -1.45952,-0.52201 -0.54822,-0.0498 -1.10529,0.0252 -1.67069,0.2235 -0.6819,0.2323 -1.25926,0.60904 -1.73258,1.13074 -0.47385,0.52201 -0.86916,1.12693 -1.18488,1.81383 -0.31625,0.68783 -0.5654,1.42862 -0.74849,2.22396 -0.18309,0.79504 -0.31572,1.57806 -0.39842,2.34818 -0.0812,0.74739 -0.12484,1.46268 -0.13472,2.14735 -0.0629,0.13648 -0.13004,0.27364 -0.20234,0.41169 -0.29127,0.55545 -0.64861,1.08126 -1.07252,1.57805 -0.4234,0.49679 -0.90193,0.93625 -1.43351,1.31705 -0.53211,0.3811 -1.08918,0.65444 -1.67069,0.81958 -0.58256,0.18283 -1.06421,0.20333 -1.44651,0.0624 -0.38283,-0.14059 -0.68607,-0.38079 -0.91025,-0.72029 -0.22418,-0.33981 -0.38646,-0.74963 -0.48633,-1.23034 -0.0999,-0.48009 -0.15812,-0.97693 -0.17477,-1.49072 0.9477,0.0665 1.79137,-0.10309 2.53153,-0.50943 0.73912,-0.40571 1.36693,-0.94447 1.88238,-1.61524 0.51546,-0.67052 0.90609,-1.42425 1.17188,-2.26084 0.26579,-0.83665 0.41611,-1.66887 0.44888,-2.4973 0.0166,-0.7786 -0.0993,-1.43715 -0.34849,-1.97555 -0.24967,-0.53808 -0.58672,-0.95674 -1.01064,-1.25463 -0.42391,-0.29851 -0.90972,-0.47223 -1.45847,-0.52201 -0.54875,-0.0498 -1.10582,0.0252 -1.67069,0.2235 -0.68242,0.2323 -1.25978,0.60904 -1.73311,1.13074 -0.47385,0.52201 -0.86915,1.12693 -1.18488,1.81383 -0.31572,0.68783 -0.56487,1.42862 -0.74796,2.22396 -0.18309,0.79504 -0.31624,1.57806 -0.39895,2.34818 -0.0473,0.43437 -0.0785,0.85552 -0.10194,1.26909 -0.16073,0.13622 -0.31729,0.27333 -0.48425,0.40794 -0.5732,0.46402 -1.17656,0.88201 -1.80801,1.25495 -0.63197,0.37289 -1.28891,0.6793 -1.96977,0.9195 -0.68243,0.2402 -1.38046,0.38522 -2.09513,0.43473 l 1.54638,-16.49895 c 0.0999,-0.34803 0.0499,-0.65408 -0.1498,-0.91919 -0.19922,-0.26512 -0.45721,-0.44732 -0.77293,-0.54662 -0.31573,-0.0996 -0.65278,-0.0911 -1.01011,0.0246 -0.35786,0.11631 -0.65226,0.38142 -0.88528,0.79499 -0.11651,0.62983 -0.23719,1.49103 -0.3615,2.58426 -0.12483,1.09323 -0.24967,2.28607 -0.37398,3.5782 -0.12484,1.29214 -0.24967,2.62557 -0.37398,4.0003 -0.12484,1.37535 -0.23303,2.65901 -0.32457,3.85153 -0.004,0.053 -0.007,0.10086 -0.0114,0.15319 -0.14564,0.12296 -0.2866,0.2468 -0.43744,0.36851 -0.5732,0.46402 -1.17656,0.88201 -1.80801,1.25495 -0.63197,0.37289 -1.28839,0.6793 -1.96977,0.9195 -0.6819,0.2402 -1.38045,0.38522 -2.09513,0.43473 l 1.54638,-16.49895 c 0.0999,-0.34803 0.0499,-0.65408 -0.14928,-0.91919 -0.19973,-0.26512 -0.45772,-0.44732 -0.77345,-0.54662 -0.31572,-0.0996 -0.65277,-0.0911 -1.01011,0.0246 -0.35734,0.11631 -0.65226,0.38142 -0.88528,0.79499 -0.11651,0.62983 -0.23666,1.49103 -0.36098,2.58426 -0.12535,1.09323 -0.24966,2.28607 -0.3745,3.5782 -0.12483,1.29214 -0.24914,2.62557 -0.37398,4.0003 -0.12431,1.37535 -0.23302,2.65901 -0.32405,3.85153 -0.002,0.0239 -0.004,0.0457 -0.006,0.0697 -0.26111,0.12073 -0.54562,0.22668 -0.85511,0.31557 -0.31572,0.0914 -0.67306,0.14527 -1.07201,0.16171 0.0666,-0.29856 0.12015,-0.62984 0.16177,-0.99425 0.0416,-0.3641 0.0754,-0.7452 0.10038,-1.14306 0.025,-0.39718 0.0328,-0.79498 0.025,-1.19252 -0.009,-0.39781 -0.0297,-0.7619 -0.0624,-1.09355 -0.0837,-0.71176 -0.23718,-1.387 -0.46136,-2.02501 -0.2247,-0.63743 -0.52794,-1.17141 -0.91025,-1.60265 -0.38282,-0.43063 -0.86031,-0.72061 -1.43454,-0.86942 -0.5732,-0.14912 -1.24262,-0.0996 -2.00671,0.14881 -1.1313,-0.14881 -2.14922,-0.0451 -3.0553,0.31079 -0.90609,0.35655 -1.69202,0.87383 -2.35676,1.55283 -0.66474,0.67966 -1.20932,1.47844 -1.63324,2.398 -0.42391,0.91919 -0.70687,1.86366 -0.84783,2.83237 -0.0598,0.4107 -0.0889,0.81959 -0.0978,1.22748 -0.25747,0.52519 -0.53939,0.98416 -0.84991,1.36937 -0.44056,0.54662 -0.89776,0.99394 -1.37161,1.34165 -0.47385,0.34798 -0.94354,0.61309 -1.40854,0.7953 -0.46605,0.18252 -0.88164,0.30672 -1.2473,0.37263 -0.43224,0.0829 -0.84783,0.0914 -1.24678,0.0249 -0.39894,-0.0659 -0.76512,-0.25664 -1.09697,-0.57153 -0.26631,-0.23172 -0.47021,-0.60461 -0.61117,-1.11814 -0.14147,-0.51349 -0.22418,-1.09698 -0.24914,-1.75173 -0.025,-0.65444 0,-1.33786 0.0744,-2.04998 0.0749,-0.71207 0.20337,-1.38732 0.38646,-2.02501 0.18309,-0.63775 0.41507,-1.20922 0.69855,-1.7149 0.28192,-0.50464 0.61481,-0.86531 0.99763,-1.0806 0.21534,0.0334 0.34901,0.1614 0.39895,0.38491 0.0499,0.22381 0.0619,0.48893 0.0369,0.79535 -0.0245,0.30667 -0.0619,0.6213 -0.11183,0.9441 -0.0499,0.32311 -0.0749,0.59265 -0.0749,0.80762 0.0832,0.44732 0.24498,0.79535 0.48633,1.04372 0.24082,0.24842 0.5113,0.39374 0.81038,0.43473 0.29908,0.0416 0.594,-0.0287 0.88579,-0.21123 0.29024,-0.18189 0.52691,-0.47187 0.71052,-0.86972 0.0161,0.0167 0.0411,0.0249 0.0744,0.0249 l 0.34953,-3.15548 c 0.0994,-0.43094 0.0328,-0.81173 -0.19973,-1.14301 -0.23303,-0.33133 -0.54043,-0.52202 -0.92273,-0.57153 -0.48217,-0.69574 -1.13495,-1.06421 -1.95781,-1.10582 -0.82286,-0.0413 -1.66653,0.22787 -2.531,0.80762 -0.53211,0.38142 -1.00179,0.90692 -1.40906,1.57774 -0.40779,0.67114 -0.73964,1.41635 -0.99711,2.23624 -0.25851,0.8199 -0.44108,1.68588 -0.54875,2.59691 -0.10819,0.91097 -0.129,1.79745 -0.0629,2.65833 0.0666,0.86182 0.22054,1.67355 0.46189,2.43514 0.24082,0.76227 0.57735,1.39996 1.01011,1.91318 0.36566,0.44732 0.78073,0.7748 1.24626,0.98192 0.46552,0.20712 0.95185,0.33513 1.45899,0.38491 0.50714,0.0495 1.01011,0.0287 1.50893,-0.0621 0.49881,-0.0908 0.97266,-0.21908 1.42154,-0.38521 0.58152,-0.21498 1.18072,-0.48862 1.79552,-0.8199 0.61481,-0.33102 1.20517,-0.72882 1.77056,-1.19284 0.29752,-0.244 0.5836,-0.51005 0.86031,-0.79535 0.12588,0.31146 0.26684,0.61283 0.4364,0.89496 0.44888,0.7452 1.05537,1.35013 1.82049,1.81383 0.76409,0.46371 1.70398,0.6869 2.8176,0.67083 1.19737,-0.0167 2.30267,-0.31869 3.31694,-0.90692 1.01427,-0.5876 1.84546,-1.45384 2.49407,-2.59659 0.9711,0 1.9266,-0.15948 2.86598,-0.4763 -0.008,0.10024 -0.0161,0.20582 -0.0234,0.30262 -0.0661,0.87795 -0.0999,1.47403 -0.0999,1.78892 -0.0161,0.54662 -0.0536,1.22155 -0.11183,2.02475 -0.0583,0.80351 -0.0957,1.64838 -0.11235,2.53428 -0.0161,0.88632 0.0166,1.78096 0.0999,2.68393 0.0832,0.90244 0.25747,1.7227 0.52378,2.46026 0.26527,0.73652 0.64341,1.36225 1.13443,1.87615 0.48997,0.51285 1.13442,0.81974 1.93284,0.91908 0.84783,0.11548 1.57914,-0.0333 2.19447,-0.44732 0.61481,-0.41455 1.11362,-0.9815 1.49644,-1.7019 0.38231,-0.72091 0.65174,-1.55314 0.81038,-2.49719 0.15761,-0.94457 0.20338,-1.89279 0.13732,-2.84569 -0.0671,-0.95243 -0.24186,-1.85087 -0.5243,-2.69537 -0.28244,-0.84512 -0.67358,-1.54086 -1.17188,-2.08779 0.2996,-0.0823 0.65642,-0.23957 1.07253,-0.47187 0.41507,-0.23172 0.84315,-0.49273 1.28423,-0.78276 0.10819,-0.0712 0.21482,-0.14626 0.32301,-0.21939 -0.0406,0.58698 -0.0614,1.00558 -0.0614,1.25083 -0.0161,0.54662 -0.0536,1.22155 -0.11235,2.02475 -0.0577,0.80351 -0.0952,1.64838 -0.11183,2.53428 -0.0166,0.88632 0.0166,1.78096 0.0999,2.68393 0.0827,0.90244 0.25747,1.7227 0.52326,2.46026 0.26579,0.73652 0.64445,1.36225 1.13442,1.87615 0.4905,0.51285 1.13495,0.81974 1.93336,0.91908 0.84731,0.11548 1.57863,-0.0333 2.19396,-0.44732 0.61532,-0.41455 1.11414,-0.9815 1.49644,-1.7019 0.3823,-0.72091 0.65226,-1.55314 0.81038,-2.49719 0.15812,-0.94457 0.20337,-1.89279 0.13732,-2.84569 -0.0666,-0.95243 -0.24135,-1.85087 -0.52326,-2.69537 -0.28348,-0.84512 -0.67359,-1.54086 -1.17292,-2.08779 0.2996,-0.0823 0.65694,-0.23957 1.07253,-0.47187 0.41559,-0.23172 0.84367,-0.49273 1.28474,-0.78276 0.22887,-0.15063 0.45617,-0.30605 0.68347,-0.46589 0.0853,0.81012 0.26943,1.52069 0.56279,2.11838 0.35786,0.72913 0.84367,1.29213 1.459,1.68993 0.6148,0.39718 1.33832,0.61689 2.17002,0.65819 0.83118,0.041 1.73675,-0.11188 2.71825,-0.45991 0.73132,-0.2648 1.36693,-0.59608 1.90736,-0.99362 0.5399,-0.39781 1.02624,-0.88232 1.45899,-1.45353 0.025,-0.0331 0.0484,-0.069 0.0728,-0.10242 0.077,0.23198 0.16229,0.45486 0.26371,0.66136 0.35786,0.72913 0.84419,1.29213 1.459,1.68993 0.6148,0.39718 1.33832,0.61689 2.1695,0.65819 0.83119,0.041 1.73727,-0.11188 2.71826,-0.45991 0.73183,-0.2648 1.36745,-0.59608 1.90787,-0.99362 0.53991,-0.39781 1.02624,-0.88232 1.459,-1.45353 0.43223,-0.57179 0.8265,-1.23034 1.18435,-1.97555 0.35734,-0.74552 0.71884,-1.59823 1.08502,-2.55935 0.0661,-0.2648 0.004,-0.5009 -0.18725,-0.70802 z"
     fill="#0d0c23"
     id="path20"
     style="stroke-width:0.52014" />
</svg>
